<svg height="100px" style="fill-rule:evenodd;clip-rule:evenodd;stroke-linecap:round;stroke-linejoin:round;" xmlns:xlink="http://www.w3.org/1999/xlink" xmlns="http://www.w3.org/2000/svg" xml:space="preserve" width="100px" xmlns:vectornator="http://vectornator.io" version="1.1" viewBox="0 0 1024 1024">
<defs/>
<g id="Layer 3" vectornator:layerName="Layer 3">
<path d="M485.658+256.894L787.957+604.94L506.32+939.663L204.021+591.618L485.658+256.894Z" opacity="1" fill="#0277bd"/>
</g>
<g id="Layer 2" vectornator:layerName="Layer 2">
<path d="M153.712+498.825C153.712+307.426+310.913+152.266+504.831+152.266C698.748+152.266+855.949+307.426+855.949+498.825C855.949+690.224+698.748+845.384+504.831+845.384C310.913+845.384+153.712+690.224+153.712+498.825Z" opacity="1" fill="#0277bd"/>
</g>
<g id="Layer 1" vectornator:layerName="Layer 1">
<path d="M501.897+335.492C494.374+335.492+486.851+338.106+481.154+343.329C477.648+346.543+477.648+351.631+481.154+354.577C484.368+357.791+490.209+357.791+493.423+354.577C498.098+350.291+505.697+350.291+510.372+354.577C521.767+365.024+540.464+365.024+551.859+354.577C556.533+350.291+564.132+350.291+568.807+354.577C574.651+359.934+581.954+362.346+589.551+362.346C597.147+362.346+604.743+359.666+610.294+354.577C613.8+351.363+613.8+346.275+610.294+343.329C606.788+340.114+601.239+340.114+598.025+343.329C593.35+347.615+585.751+347.615+581.076+343.329C569.682+332.882+550.984+332.882+539.589+343.329C534.915+347.615+527.316+347.615+522.641+343.329C516.943+338.106+509.421+335.492+501.897+335.492ZM633.378+340.849C631.113+340.849+628.85+341.589+627.243+343.062C625.49+344.669+624.612+346.81+624.612+348.953C624.612+349.489+624.611+350.023+624.903+350.559C624.903+351.095+625.194+351.631+625.194+351.898C625.486+352.434+625.781+352.97+626.073+353.238C626.365+353.773+626.659+354.042+627.243+354.31C628.996+355.917+631.04+356.722+633.378+356.722C635.715+356.722+638.051+355.917+639.512+354.31C641.265+352.703+642.143+350.829+642.143+348.686C642.143+346.543+641.265+344.401+639.512+343.062C637.905+341.589+635.642+340.849+633.378+340.849ZM411.322+340.917C398.758+340.917+387.069+345.469+378.303+353.505C374.797+356.719+374.797+361.811+378.303+364.758C380.056+366.365+382.106+367.17+384.444+367.17C386.781+367.17+388.825+366.365+390.578+364.758C396.13+359.669+403.433+356.989+411.322+356.989L458.07+356.989C463.037+356.989+466.836+353.507+466.836+348.953C466.836+344.399+463.037+340.917+458.07+340.917L411.322+340.917ZM355.808+375.739C351.133+375.739+347.335+379.223+347.043+383.508L335.646+656.997L332.434+656.997C327.467+656.997+323.668+660.479+323.668+665.033C323.668+669.586+327.467+673.069+332.434+673.069L344.121+673.069L402.557+673.069L402.848+673.069C407.815+672.801+411.322+669.052+411.322+664.766L408.109+592.176C407.817+587.622+404.02+584.139+399.053+584.407C398.468+584.407+397.88+584.405+397.004+584.673L356.099+584.673L359.021+517.707L387.657+517.707L389.408+560.299L389.408+561.099L389.408+561.905C389.408+562.173+389.407+562.171+389.7+562.439C389.7+562.706+389.995+563.243+390.287+563.511C390.287+563.511+390.286+563.778+390.578+563.778C390.87+564.046+391.159+564.583+391.451+564.85L391.748+565.117L392.621+565.923L392.912+566.19C393.205+566.458+393.499+566.729+393.791+566.729C393.791+566.729+394.082+566.728+394.082+566.995C394.374+567.263+394.668+567.261+395.252+567.529C395.544+567.529+395.542+567.528+395.834+567.796C396.126+567.796+396.421+568.068+396.713+568.068L397.883+568.068L398.465+568.068C398.757+568.068+399.343+568.064+399.635+567.796L400.217+567.796C400.509+567.796+400.803+567.529+401.096+567.529C401.388+567.529+401.682+567.262+401.974+567.262L510.663+517.441L510.663+557.887C510.663+560.566+512.125+563.243+514.754+564.85C517.384+566.19+520.599+566.457+523.229+565.117L627.243+517.441L627.243+656.997L440.54+656.997C435.573+656.997+431.774+660.479+431.774+665.033C431.774+669.586+435.573+673.069+440.54+673.069L650.617+673.069C655.584+673.069+659.383+669.586+659.383+665.033C659.383+660.479+655.584+656.997+650.617+656.997L644.774+656.997L644.774+504.314C644.774+501.635+643.312+498.958+640.682+497.351C638.052+496.011+634.837+495.745+632.208+497.084L528.193+544.761L528.193+504.314C528.193+501.635+526.731+498.958+524.102+497.351C521.472+496.011+518.257+495.745+515.627+497.084L406.357+547.172L399.635+383.508C399.343+379.223+395.544+375.739+390.869+375.739L355.808+375.739ZM363.991+391.811L382.395+391.811L385.026+450.741L361.651+450.741L363.991+391.811ZM446.383+576.637C438.202+576.637+431.774+582.53+431.774+590.031L431.774+600.745L460.992+600.745L460.992+590.031C460.992+582.53+454.564+576.637+446.383+576.637ZM496.054+576.637C487.873+576.637+481.445+582.53+481.445+590.031L481.445+600.745L510.663+600.745L510.663+590.031C510.663+582.53+504.235+576.637+496.054+576.637ZM545.724+576.637C537.543+576.637+531.115+582.53+531.115+590.031L531.115+600.745L560.333+600.745L560.333+590.031C560.333+582.53+553.905+576.637+545.724+576.637ZM595.394+576.637C587.213+576.637+580.785+582.53+580.785+590.031L580.785+600.745L610.003+600.745L610.003+590.031C610.003+582.53+603.575+576.637+595.394+576.637ZM431.774+616.817L431.774+640.925L460.992+640.925L460.992+616.817L431.774+616.817ZM481.445+616.817L481.445+640.925L510.663+640.925L510.663+616.817L481.445+616.817ZM531.115+616.817L531.115+640.925L560.333+640.925L560.333+616.817L531.115+616.817ZM580.785+616.817L580.785+640.925L610.003+640.925L610.003+616.817L580.785+616.817ZM683.179+657.112C682.462+657.082+681.735+657.13+681.005+657.263C680.421+657.263+679.832+657.534+679.247+657.802C678.663+658.07+678.079+658.335+677.786+658.603C677.202+658.871+676.914+659.14+676.622+659.675L675.452+660.748C675.16+661.284+674.866+661.551+674.574+662.087C674.281+662.623+674.284+663.158+673.992+663.693C673.992+664.229+673.701+664.764+673.701+665.299C673.701+667.442+674.572+669.584+676.326+670.923C676.91+671.191+677.494+671.461+677.786+671.729C678.371+671.997+678.663+672.267+679.247+672.535C679.832+672.803+680.421+672.801+681.005+673.069C681.589+673.069+682.173+673.335+682.757+673.335C683.341+673.335+683.924+673.336+684.509+673.069C685.093+673.069+685.676+672.803+686.261+672.535C686.845+672.267+687.137+671.997+687.722+671.729C688.306+671.461+688.598+671.192+689.183+670.657C690.936+669.049+691.813+667.176+691.813+665.033C691.813+664.497+691.814+663.962+691.522+663.426C691.522+662.891+691.227+662.356+690.934+661.82C690.642+661.285+690.354+661.017+690.061+660.481C689.769+659.945+689.476+659.676+688.892+659.408C687.358+658.002+685.329+657.2+683.179+657.112Z" opacity="1" fill="#ffffff"/>
<path stroke="#000000" stroke-width="1" d="M890.086-169.914L906.086-173.914" fill="none" stroke-linecap="round" opacity="1" stroke-linejoin="round"/>
</g>
</svg>
