<svg version="1.1" id="Capa_1" xmlns="http://www.w3.org/2000/svg" xmlns:xlink="http://www.w3.org/1999/xlink" x="0px" y="0px"
	 viewBox="0 0 512 512" style="enable-background:new 0 0 512 512;" xml:space="preserve">
<g>
	<g>
		<polygon points="163.584,33 49.75,33 46.792,90.667 166.541,90.667 		"/>
	</g>
</g>
<g>
	<g>
		<polygon points="168.08,120.667 45.254,120.667 42.862,167.298 170.472,167.298 		"/>
	</g>
</g>
<g>
	<g>
		<path d="M484.334,449V232.214l-103.53,44.556v-44.556l-103.53,44.556v-44.629l-71.84,31.168L214.957,449h-30.04L172.01,197.298
			H41.324L28.417,449H0v30h512v-30H484.334z M303.111,409h-30v-42.667h30V409z M363.556,409h-30v-42.667h30V409z M424,409h-30
			v-42.667h30V409z"/>
	</g>
</g>
<g>
</g>
<g>
</g>
<g>
</g>
<g>
</g>
<g>
</g>
<g>
</g>
<g>
</g>
<g>
</g>
<g>
</g>
<g>
</g>
<g>
</g>
<g>
</g>
<g>
</g>
<g>
</g>
<g>
</g>
</svg>
