<svg height="100%" style="fill-rule:evenodd;clip-rule:evenodd;stroke-linecap:round;stroke-linejoin:round;" xmlns:xlink="http://www.w3.org/1999/xlink" xmlns="http://www.w3.org/2000/svg" xml:space="preserve" width="100%" xmlns:vectornator="http://vectornator.io" version="1.1" viewBox="0 0 1024 1024">
<defs/>
<g id="Layer 3" vectornator:layerName="Layer 3" visibility="hidden">
<path d="M485.658+256.894L787.957+604.94L506.32+939.663L204.021+591.618L485.658+256.894Z" opacity="1" fill="#0277bd"/>
</g>
<g id="Layer 2" vectornator:layerName="Layer 2" visibility="hidden">
<path d="M153.712+498.825C153.712+307.426+310.913+152.266+504.831+152.266C698.748+152.266+855.949+307.426+855.949+498.825C855.949+690.224+698.748+845.384+504.831+845.384C310.913+845.384+153.712+690.224+153.712+498.825Z" opacity="1" fill="#0277bd"/>
</g>
<g id="Layer 1" vectornator:layerName="Layer 1">
<path d="M495.928+162.933C480.719+162.933+465.512+168.217+453.994+178.776C446.906+185.274+446.906+195.559+453.994+201.515C460.491+208.013+472.3+208.013+478.797+201.515C488.247+192.851+503.609+192.851+513.059+201.515C536.094+222.633+573.891+222.633+596.926+201.515C606.377+192.851+621.738+192.851+631.188+201.515C643.001+212.345+657.765+217.22+673.122+217.22C688.479+217.22+703.833+211.803+715.056+201.515C722.143+195.017+722.143+184.733+715.056+178.776C707.968+172.278+696.75+172.278+690.253+178.776C680.803+187.44+665.441+187.44+655.991+178.776C632.956+157.658+595.159+157.658+572.124+178.776C562.673+187.44+547.312+187.44+537.861+178.776C526.344+168.217+511.137+162.933+495.928+162.933ZM761.719+173.763C757.142+173.763+752.566+175.259+749.318+178.237C745.774+181.486+744+185.814+744+190.146C744+191.229+743.997+192.31+744.588+193.393C744.588+194.476+745.176+195.559+745.176+196.1C745.767+197.183+746.362+198.266+746.953+198.807C747.544+199.89+748.137+200.434+749.318+200.976C752.862+204.225+756.994+205.851+761.719+205.851C766.444+205.851+771.167+204.225+774.12+200.976C777.664+197.727+779.438+193.938+779.438+189.606C779.438+185.274+777.664+180.944+774.12+178.237C770.872+175.259+766.297+173.763+761.719+173.763ZM312.827+173.901C287.429+173.901+263.799+183.102+246.079+199.347C238.992+205.845+238.992+216.14+246.079+222.096C249.623+225.345+253.767+226.972+258.492+226.972C263.217+226.972+267.35+225.345+270.894+222.096C282.116+211.808+296.88+206.391+312.827+206.391L407.331+206.391C417.372+206.391+425.05+199.351+425.05+190.146C425.05+180.94+417.372+173.901+407.331+173.901L312.827+173.901ZM200.604+244.295C191.154+244.295+183.476+251.337+182.885+260.001L159.847+812.865L153.353+812.865C143.312+812.865+135.633+819.904+135.633+829.109C135.633+838.315+143.312+845.354+153.353+845.354L176.978+845.354L295.108+845.354L295.696+845.354C305.737+844.813+312.827+837.234+312.827+828.57L306.332+681.827C305.742+672.622+298.066+665.58+288.025+666.122C286.843+666.122+285.655+666.12+283.883+666.661L201.193+666.661L207.099+531.287L264.987+531.287L268.529+617.387L268.529+619.005L268.529+620.634C268.529+621.175+268.526+621.171+269.117+621.713C269.117+622.254+269.715+623.339+270.305+623.881C270.305+623.881+270.303+624.42+270.894+624.42C271.484+624.962+272.068+626.047+272.659+626.588L273.258+627.128L275.024+628.756L275.612+629.296C276.203+629.837+276.798+630.385+277.388+630.385C277.388+630.385+277.977+630.383+277.977+630.924C278.567+631.466+279.16+631.462+280.342+632.003C280.932+632.003+280.928+632.001+281.518+632.543C282.109+632.543+282.704+633.093+283.295+633.093L285.66+633.093L286.836+633.093C287.427+633.093+288.611+633.084+289.201+632.543L290.378+632.543C290.969+632.543+291.564+632.003+292.155+632.003C292.745+632.003+293.34+631.464+293.931+631.464L513.647+530.748L513.647+612.512C513.647+617.926+516.603+623.339+521.919+626.588C527.234+629.296+533.734+629.835+539.05+627.128L749.318+530.748L749.318+812.865L371.892+812.865C361.851+812.865+354.173+819.904+354.173+829.109C354.173+838.315+361.851+845.354+371.892+845.354L796.57+845.354C806.611+845.354+814.289+838.315+814.289+829.109C814.289+819.904+806.611+812.865+796.57+812.865L784.757+812.865L784.757+504.213C784.757+498.798+781.801+493.385+776.485+490.136C771.169+487.428+764.67+486.889+759.354+489.596L549.086+585.976L549.086+504.213C549.086+498.798+546.131+493.385+540.815+490.136C535.499+487.428+528.999+486.889+523.684+489.596L302.791+590.852L289.201+260.001C288.611+251.337+280.932+244.295+271.482+244.295L200.604+244.295ZM217.147+276.785L254.351+276.785L259.669+395.914L212.417+395.914L217.147+276.785ZM383.705+650.416C367.167+650.416+354.173+662.329+354.173+677.491L354.173+699.151L413.237+699.151L413.237+677.491C413.237+662.329+400.243+650.416+383.705+650.416ZM484.115+650.416C467.577+650.416+454.583+662.329+454.583+677.491L454.583+699.151L513.647+699.151L513.647+677.491C513.647+662.329+500.653+650.416+484.115+650.416ZM584.525+650.416C567.987+650.416+554.993+662.329+554.993+677.491L554.993+699.151L614.057+699.151L614.057+677.491C614.057+662.329+601.063+650.416+584.525+650.416ZM684.935+650.416C668.397+650.416+655.403+662.329+655.403+677.491L655.403+699.151L714.467+699.151L714.467+677.491C714.467+662.329+701.473+650.416+684.935+650.416ZM354.173+731.64L354.173+780.375L413.237+780.375L413.237+731.64L354.173+731.64ZM454.583+731.64L454.583+780.375L513.647+780.375L513.647+731.64L454.583+731.64ZM554.993+731.64L554.993+780.375L614.057+780.375L614.057+731.64L554.993+731.64ZM655.403+731.64L655.403+780.375L714.467+780.375L714.467+731.64L655.403+731.64ZM862.394+813.097C860.945+813.038+859.476+813.133+857.999+813.404C856.818+813.404+855.627+813.952+854.446+814.493C853.265+815.035+852.083+815.57+851.493+816.111C850.312+816.653+849.73+817.197+849.139+818.28L846.775+820.448C846.184+821.531+845.589+822.072+844.998+823.155C844.407+824.238+844.412+825.319+843.821+826.402C843.821+827.485+843.233+828.566+843.233+829.649C843.233+833.981+844.996+838.311+848.54+841.018C849.721+841.56+850.902+842.105+851.493+842.647C852.674+843.188+853.265+843.734+854.446+844.275C855.627+844.817+856.818+844.813+857.999+845.354C859.18+845.354+860.359+845.894+861.541+845.894C862.722+845.894+863.901+845.896+865.082+845.354C866.264+845.354+867.443+844.817+868.624+844.275C869.805+843.734+870.396+843.188+871.577+842.647C872.758+842.105+873.349+841.562+874.53+840.479C878.074+837.23+879.848+833.441+879.848+829.109C879.848+828.026+879.851+826.946+879.26+825.863C879.26+824.78+878.663+823.699+878.072+822.616C877.481+821.533+876.898+820.991+876.307+819.908C875.716+818.825+875.123+818.282+873.942+817.74C870.841+814.897+866.741+813.275+862.394+813.097Z" opacity="1" fill="#ffffff"/>
<path stroke="#000000" stroke-width="1" d="M890.086-169.914L906.086-173.914" fill="none" stroke-linecap="round" opacity="1" stroke-linejoin="round"/>
</g>
</svg>
